# xmcd
# 
# Track frame offsets:
#     150
#     16719
#     29898
#     44731
#     62496
#     85404
# 
# Disc length: 1364
# 
# Revision: 2
# Processed by: cddbd v1.5.2PL0 Copyright (c) Steve Scherf et al.
# Submitted via: BonkEnc v1.0
# 
DISCID=4b055206
DTITLE=The Puritanicals - 1620
DYEAR=0
DGENRE=
TTITLE0=I Killed You In My Sleep
TTITLE1=Into the Mud
TTITLE2=Victoria
TTITLE3=Fool's Gold
TTITLE4=Touch Me
TTITLE5=Mood Swings
EXTD=
EXTT0=
EXTT1=
EXTT2=
EXTT3=
EXTT4=
EXTT5=
PLAYORDER=
